<?xml version="1.0" encoding="UTF-8" standalone="no"?>
<!-- Created with Inkscape (http://www.inkscape.org/) -->

<svg
   width="171.9496mm"
   height="101.43022mm"
   viewBox="0 0 171.9496 101.43022"
   version="1.1"
   id="svg1"
   xml:space="preserve"
   xmlns="http://www.w3.org/2000/svg"
   xmlns:svg="http://www.w3.org/2000/svg"><defs
     id="defs1" /><g
     id="layer1"
     transform="translate(-19.519971,-32.657768)"><path
       style="fill:#ffffff;fill-opacity:1"
       d="m 31.955392,133.83828 c -7.01728,-1.35097 -12.43542,-7.92053 -12.43542,-15.07812 0,-2.90444 0.37786,-4.57003 1.61624,-7.12427 l 1.09037,-2.24896 36.781841,-36.815362 c 28.608632,-28.63471 37.141485,-37.02922 38.400345,-37.77776 2.58774,-1.53872 4.853032,-2.13604 8.100792,-2.13604 3.24776,0 5.51305,0.59732 8.10079,2.13604 1.25886,0.74854 9.79172,9.14305 38.40035,37.77776 l 36.78184,36.815362 1.0917,2.24896 c 1.33637,2.75299 1.70964,4.66296 1.55126,7.9375 -0.41127,8.5029 -7.76684,15.01188 -16.34052,14.45981 -2.84531,-0.18321 -4.67338,-0.7257 -7.01146,-2.08067 -1.58801,-0.92029 -6.18123,-5.39725 -32.21439,-31.39899 L 105.50683,70.227878 75.147255,100.55603 c -33.258473,33.22405 -31.842863,31.93092 -36.165603,33.03649 -2.17662,0.55669 -4.9139,0.65243 -7.02626,0.24576 z"
       id="path1" /></g></svg>
